<svg xmlns="http://www.w3.org/2000/svg" viewBox="0 0 173.44 173.44"><defs><style>.cls-1{fill:red;}</style></defs><g id="Capa_14" data-name="Capa 14"><path class="cls-1" d="M86.72,0a86.72,86.72,0,1,0,86.72,86.72A86.67,86.67,0,0,0,86.72,0Zm0,159.89a73.17,73.17,0,1,1,73.17-73.17A73.13,73.13,0,0,1,86.72,159.89Z"/><path class="cls-1" d="M86.72,43.66a6.78,6.78,0,0,0-6.78,6.77V94.06a6.78,6.78,0,0,0,13.55,0V50.43A6.77,6.77,0,0,0,86.72,43.66Z"/><circle class="cls-1" cx="86.72" cy="118.28" r="9.15"/></g></svg>