<svg id="Capa_1" data-name="Capa 1" xmlns="http://www.w3.org/2000/svg" viewBox="0 0 150 150"><path d="M75,149a21.7,21.7,0,0,0,19.86-13H55.14A21.7,21.7,0,0,0,75,149Z"/><path d="M119.8,72.65v-9.5A44.89,44.89,0,0,0,88,20.27V14a13,13,0,0,0-26,0v6.26A44.89,44.89,0,0,0,30.2,63.15v9.5a68.06,68.06,0,0,1-19,47.33,4.34,4.34,0,0,0,3.13,7.34H135.7a4.34,4.34,0,0,0,3.13-7.34,68.06,68.06,0,0,1-19-47.33ZM79.34,18.55c-1.43-.13-2.88-.21-4.34-.21s-2.91.08-4.34.21V14a4.34,4.34,0,0,1,8.68,0Z"/><path d="M131.37,63.15a4.34,4.34,0,0,0,8.67,0,64.63,64.63,0,0,0-19-46,4.33,4.33,0,0,0-6.13,6.13,56,56,0,0,1,16.51,39.86Z"/><path d="M14.3,67.48a4.33,4.33,0,0,0,4.33-4.33A56,56,0,0,1,35.14,23.29,4.33,4.33,0,0,0,29,17.16a64.63,64.63,0,0,0-19,46A4.33,4.33,0,0,0,14.3,67.48Z"/></svg>