<svg id="Capa_1" data-name="Capa 1" xmlns="http://www.w3.org/2000/svg" viewBox="0 0 150 150"><path d="M108.26,141.74a40.58,40.58,0,0,1-28.79-11.89L9.9,60.29A30.49,30.49,0,0,1,53,17.16l56.15,56.15a20.81,20.81,0,0,1,0,29.35c-7.83,7.83-21.52,7.85-29.35,0L38.53,61.37a6.41,6.41,0,0,1,9.06-9.06L88.88,93.6a8.1,8.1,0,0,0,11.23,0,8,8,0,0,0,0-11.26L44,26.22c-6.68-6.69-18.36-6.69-25,0a17.71,17.71,0,0,0,0,25l69.56,69.55A27.93,27.93,0,1,0,128,81.29l-51.8-51.8a6.41,6.41,0,0,1,9.06-9.06l51.8,51.8a40.7,40.7,0,0,1-28.81,69.51Z"/></svg>