<svg id="Capa_1" data-name="Capa 1" xmlns="http://www.w3.org/2000/svg" viewBox="0 0 150 150"><path d="M61.41,126.35a2.4,2.4,0,0,1-.19-1.28c.06-.34-.16-.63-.66-.85s-.76-.39-.76-.52-.36-.22-1.08-.28l-1.09-.1H28.18a14.51,14.51,0,0,1-10.66-4.43,14.54,14.54,0,0,1-4.44-10.67V41.77a14.53,14.53,0,0,1,4.44-10.66,14.52,14.52,0,0,1,10.66-4.44H58.39a2.83,2.83,0,0,0,1.93-.61,3.09,3.09,0,0,0,.94-1.84A15.41,15.41,0,0,0,61.55,22a24.85,24.85,0,0,0,0-2.5q-.09-1.52-.09-1.89a3.07,3.07,0,0,0-3-3H28.18a26.16,26.16,0,0,0-19.2,8A26.18,26.18,0,0,0,1,41.78v66.44a26.18,26.18,0,0,0,8,19.21,26.16,26.16,0,0,0,19.2,8H58.39a2.83,2.83,0,0,0,1.93-.62,3.12,3.12,0,0,0,1-1.84,16.68,16.68,0,0,0,.28-2.21,22.12,22.12,0,0,0,0-2.5Q61.41,126.73,61.41,126.35Z"/><path d="M147.21,70.75,95.86,19.4a6,6,0,0,0-10.29,4.25V50.84H43.29a6.13,6.13,0,0,0-6,6V93.12a6.13,6.13,0,0,0,6,6H85.57v27.19a6,6,0,0,0,10.29,4.24l51.35-51.34a5.94,5.94,0,0,0,0-8.5Z"/></svg>