<svg xmlns="http://www.w3.org/2000/svg" viewBox="0 0 200 200"><defs><style>.cls-1{fill:#fff;}.cls-2{fill:red;}</style></defs><g id="Capa_3" data-name="Capa 3"><path class="cls-1" d="M28,42.41H151.29l-2,9.21L44.58,50.81l8.77,36.45h70.26L109.24,96.4H55.74l4.15,21L43.16,129.13ZM156.8,134.29H43.23l18.15-12.72h77.5l9.27-44.11H90.55L76.27,65.79h74.36l7.47-35.12H37.43l-12.3-10H174.66Z"/><polygon class="cls-2" points="186.48 20.41 165.98 144.34 98.64 144.34 75.13 156.19 80.6 143.8 35.2 143.8 14.86 37.89 25.7 33.35 17.5 24.98 2.5 31.26 26.2 154.69 63.9 154.69 52.9 179.59 101.22 155.23 175.21 155.23 197.5 20.52 186.48 20.41"/></g></svg>