<svg id="Capa_1" data-name="Capa 1" xmlns="http://www.w3.org/2000/svg" viewBox="0 0 150 150"><path d="M39.54,115.08A23.08,23.08,0,0,1,17.7,99.35l-.22-.71A22.53,22.53,0,0,1,16.41,92v-42l-15,49.94a14,14,0,0,0,9.82,17l95.36,25.54a14.07,14.07,0,0,0,3.55.46,13.76,13.76,0,0,0,13.33-10.09l5.55-17.67Z"/><path d="M56.5,50.33A12.33,12.33,0,1,0,44.16,38,12.34,12.34,0,0,0,56.5,50.33Z"/><path d="M133.58,7.16H41.08A15.44,15.44,0,0,0,25.66,22.58V90.42a15.44,15.44,0,0,0,15.42,15.41h92.5A15.44,15.44,0,0,0,149,90.42V22.58A15.44,15.44,0,0,0,133.58,7.16ZM41.08,19.5h92.5a3.08,3.08,0,0,1,3.09,3.08V66.36L117.19,43.63a11.05,11.05,0,0,0-8.27-3.79,10.75,10.75,0,0,0-8.24,3.89L77.77,71.22l-7.46-7.44a10.82,10.82,0,0,0-15.29,0l-17,17V22.58A3.08,3.08,0,0,1,41.08,19.5Z"/></svg>