<svg id="Capa_1" data-name="Capa 1" xmlns="http://www.w3.org/2000/svg" viewBox="0 0 150 150"><path d="M53.61,115.09l-.25.07a23.71,23.71,0,0,1-5.84.86l-5,25.31a4.24,4.24,0,0,0,3.4,5l14.32,2.62a4.23,4.23,0,0,0,4.92-3.36l7.24-36.94Z"/><path d="M90.72,2.54,62.09,37.15,84,101l43.67,9.12a4.24,4.24,0,0,0,4.88-5.53L98,3.87a4.23,4.23,0,0,0-7.27-1.33Z"/><path d="M24.61,100.32,15.37,73.38a22.75,22.75,0,0,1-1.07-4.66l-5.83,2A8.05,8.05,0,0,0,3.46,81l7.1,20.7a8.05,8.05,0,0,0,10.23,5l5.83-2A22.9,22.9,0,0,1,24.61,100.32Z"/><path d="M74.33,99,51.1,107a15.16,15.16,0,0,1-18.47-9.41L23.39,70.63a13.72,13.72,0,0,1,9.12-17.85l23.24-8Z"/><path d="M144.11,80.93a4.17,4.17,0,0,1-3.24-.2L130,75.42a4.24,4.24,0,0,1,3.73-7.62l10.87,5.31a4.25,4.25,0,0,1,1.94,5.68,4.18,4.18,0,0,1-2.43,2.14Z"/><path d="M119.51,35.58a4.17,4.17,0,0,1-3.24-.2,4.24,4.24,0,0,1-1.94-5.67l5.32-10.87a4.24,4.24,0,0,1,7.62,3.73L122,33.44a4.23,4.23,0,0,1-2.44,2.14Z"/><path d="M141.5,50.42l-11.45,3.92a4.24,4.24,0,1,1-2.75-8l11.44-3.92a4.24,4.24,0,0,1,2.76,8Z"/></svg>