<svg id="Capa_1" data-name="Capa 1" xmlns="http://www.w3.org/2000/svg" viewBox="0 0 150 150"><g id="Shopping_Bag-Hands-Bag-Purchase-Buy" data-name="Shopping Bag-Hands-Bag-Purchase-Buy"><path d="M63,126.87a33,33,0,0,1,13.5-2.44l12.09.37a27.71,27.71,0,0,0,11.44-2.07L145.84,104a5,5,0,0,0,2.76-2.74,5.1,5.1,0,0,0-.13-4.24,5.41,5.41,0,0,0-6.86-2.28l-24.23,9.89a10.11,10.11,0,0,1-11.18,7.48l-27.72-3.79.69-5,27.71,3.78a5.08,5.08,0,0,0,1.49-10.06l-.12,0L77.41,92.82a33.17,33.17,0,0,0-17,2.15l-3.89,1.59a38.34,38.34,0,0,0-10.12,6.13l10.84,26.54Z"/><path d="M12.77,114.43l10.1,24.72-13.52.53L1,119.24Z"/><path d="M54.49,135.87l-5.61,2.28-20.6.79L16.53,110.16,40,100.55Z"/><path d="M103.15,10.32A16.36,16.36,0,1,1,86.79,26.68,16.36,16.36,0,0,1,103.15,10.32Z"/><path d="M103.14,81.51A36.31,36.31,0,0,1,79.5,72.8a7,7,0,0,1-2.44-5.3A16.49,16.49,0,0,1,93.63,51h19A16.47,16.47,0,0,1,129.22,67.5a7,7,0,0,1-2.45,5.3A36.28,36.28,0,0,1,103.14,81.51Z"/></g></svg>