<svg id="Capa_1" data-name="Capa 1" xmlns="http://www.w3.org/2000/svg" viewBox="0 0 150 150"><g id="Shopping_Bag-Hands-Bag-Purchase-Buy" data-name="Shopping Bag-Hands-Bag-Purchase-Buy"><path d="M96.67,48.65V76.24h40.12V48.65Zm32.6,10a12.54,12.54,0,1,1-25.08,0v-5h5v5a7.52,7.52,0,1,0,15,0v-5h5Z"/><path d="M91.65,83.77a6.91,6.91,0,0,0,.45,2.5H54a2.5,2.5,0,0,1-2.51-2.5V81.26H91.65Z"/><path d="M101.68,31.1V43.64H94.16a2.5,2.5,0,0,0-2.51,2.5v30.1H51.52V31.1h7.53v7.52h5V31.1H89.14v7.52h5V31.1Z"/><path d="M136.79,81.26v2.51a2.5,2.5,0,0,1-2.5,2.5H99.17a2.5,2.5,0,0,1-2.5-2.5V81.26Z"/><path d="M94.16,31.1h-5V18.56a12.54,12.54,0,0,0-25.08,0V31.1h-5V18.56a17.56,17.56,0,1,1,35.11,0Z"/><path d="M63.2,136.36A32.65,32.65,0,0,1,76.52,134l11.92.36a27.28,27.28,0,0,0,11.29-2l45.15-18.45a5,5,0,0,0,2.73-2.71,5.06,5.06,0,0,0-.13-4.17,5.34,5.34,0,0,0-6.78-2.26l-23.89,9.76a10,10,0,0,1-11,7.38L78.44,118.1l.67-4.95,27.34,3.72a5,5,0,0,0,1.46-9.92l-.11,0-30.43-4.15a32.69,32.69,0,0,0-16.74,2.12l-3.84,1.57a37.31,37.31,0,0,0-10,6L57.5,138.69Z"/><path d="M13.61,124.1l10,24.38L10.24,149,2,128.84Z"/><path d="M54.77,145.24l-5.54,2.25-20.32.79L17.32,119.89l23.2-9.49Z"/></g></svg>