<svg id="Capa_1" data-name="Capa 1" xmlns="http://www.w3.org/2000/svg" viewBox="0 0 150 150"><path d="M147.33,108.44,119.58,85.32A4.62,4.62,0,0,0,112,88.87v13.88h-7.74a18.41,18.41,0,0,1-15.69-8.7L58.62,46.14A36.78,36.78,0,0,0,27.24,28.75H1v18.5H27.24a18.4,18.4,0,0,1,15.69,8.69l29.95,47.92a36.82,36.82,0,0,0,31.38,17.39H112v13.87a4.63,4.63,0,0,0,4.63,4.63,4.52,4.52,0,0,0,3-1.08l27.75-23.12a4.62,4.62,0,0,0,0-7.11Z"/><path d="M147.33,34.44,119.58,11.32A4.62,4.62,0,0,0,112,14.87V28.75h-7.74A36.78,36.78,0,0,0,72.88,46.14l-1.67,2.68,10.9,17.45,6.46-10.33a18.4,18.4,0,0,1,15.69-8.69H112V61.12a4.63,4.63,0,0,0,2.66,4.19,4.68,4.68,0,0,0,2,.44,4.57,4.57,0,0,0,3-1.08l27.75-23.12a4.62,4.62,0,0,0,0-7.11Z"/><path d="M49.39,83.72,42.94,94.05a18.43,18.43,0,0,1-15.7,8.7H1v18.5H27.24a36.82,36.82,0,0,0,31.38-17.39l1.67-2.69Z"/></svg>