<?xml version="1.0" encoding="utf-8"?>
<!-- Generator: Adobe Illustrator 25.2.1, SVG Export Plug-In . SVG Version: 6.00 Build 0)  -->
<svg version="1.1" id="Capa_1" xmlns="http://www.w3.org/2000/svg" xmlns:xlink="http://www.w3.org/1999/xlink" x="0px" y="0px"
	 viewBox="0 0 150 150" style="enable-background:new 0 0 150 150;" xml:space="preserve">
<style type="text/css">
	.st0{fill:#39B54A;}
</style>
<g>
	<g>
		<path class="st0" d="M45.8,61.8c-2-2.2-5.6-2.4-7.8-0.4s-2.4,5.6-0.4,7.8l28.1,30.5c1.1,1.1,2.4,1.9,3.9,1.9c0,0,0,0,0.2,0
			c1.5,0,3-0.6,3.9-1.7l71-70.8c2.2-2.2,2.2-5.8,0-7.8c-2.2-2-5.8-2.2-7.8,0L70,88L45.8,61.8z"/>
	</g>
	<g>
		<path class="st0" d="M143.4,69.4c-3.2,0-5.6,2.4-5.6,5.6c0,34.6-28.3,62.8-62.8,62.8S12.2,109.6,12.2,75S40.4,12.2,75,12.2
			c3.2,0,5.6-2.4,5.6-5.6S78.2,1,75,1C34.3,1,1,34.3,1,75s33.3,74,74,74s74-33.3,74-74C149,71.8,146.6,69.4,143.4,69.4z"/>
	</g>
</g>
</svg>
