<svg xmlns="http://www.w3.org/2000/svg" viewBox="0 0 150 150"><defs><style>.cls-1,.cls-3{fill:#fff;}.cls-1{stroke:red;stroke-miterlimit:10;stroke-width:8px;}.cls-2{fill:red;}</style></defs><g id="Capa_5" data-name="Capa 5"><circle class="cls-1" cx="72.67" cy="75" r="46.52"/><circle class="cls-2" cx="109.93" cy="103.41" r="13.92"/><path class="cls-3" d="M115,102.31h-3.74a.22.22,0,0,1-.22-.22V98.34a1.11,1.11,0,0,0-2.21,0v3.75a.22.22,0,0,1-.22.22h-3.75a1.1,1.1,0,1,0,0,2.2h3.75a.22.22,0,0,1,.22.22v3.75a1.11,1.11,0,0,0,2.21,0v-3.75a.22.22,0,0,1,.22-.22H115a1.1,1.1,0,1,0,0-2.2Z"/><path class="cls-2" d="M75,46.13A13.27,13.27,0,1,1,61.74,59.4,13.27,13.27,0,0,1,75,46.13Z"/><path class="cls-2" d="M75,103.87A29.49,29.49,0,0,1,55.83,96.8a5.65,5.65,0,0,1-2-4.3A13.37,13.37,0,0,1,67.29,79.13H82.73A13.35,13.35,0,0,1,96.15,92.5a5.66,5.66,0,0,1-2,4.3A29.47,29.47,0,0,1,75,103.87Z"/></g></svg>