<svg xmlns="http://www.w3.org/2000/svg" viewBox="0 0 150 150"><defs><style>.cls-1,.cls-3{fill:#fff;}.cls-1{stroke:red;stroke-miterlimit:10;stroke-width:8px;}.cls-2{fill:red;}</style></defs><g id="Capa_5" data-name="Capa 5"><circle class="cls-1" cx="72.26" cy="75" r="54.64"/><circle class="cls-2" cx="116.03" cy="108.37" r="16.35"/><path class="cls-3" d="M122,107.08h-4.4a.26.26,0,0,1-.26-.26v-4.4a1.3,1.3,0,1,0-2.59,0v4.4a.26.26,0,0,1-.26.26h-4.4a1.29,1.29,0,1,0,0,2.58h4.4a.26.26,0,0,1,.26.26v4.4a1.3,1.3,0,1,0,2.59,0v-4.4a.26.26,0,0,1,.26-.26H122a1.29,1.29,0,1,0,0-2.58Z"/><path class="cls-2" d="M52.81,93.3a10.54,10.54,0,0,1-10-7.18l-.1-.33a10.33,10.33,0,0,1-.49-3.05V63.55l-6.83,22.8A6.39,6.39,0,0,0,39.9,94.1l43.54,11.66a6.49,6.49,0,0,0,1.62.21,6.29,6.29,0,0,0,6.09-4.6l2.53-8.07Z"/><path class="cls-2" d="M60.55,63.74a5.63,5.63,0,1,0-5.63-5.63A5.64,5.64,0,0,0,60.55,63.74Z"/><path class="cls-2" d="M95.74,44H53.51a7,7,0,0,0-7,7V82a7,7,0,0,0,7,7H95.74a7.05,7.05,0,0,0,7-7v-31A7.05,7.05,0,0,0,95.74,44ZM53.51,49.66H95.74a1.41,1.41,0,0,1,1.41,1.41v20L88.26,60.68A5,5,0,0,0,84.48,59a4.94,4.94,0,0,0-3.76,1.77L70.27,73.27l-3.41-3.39a4.93,4.93,0,0,0-7,0l-7.77,7.76V51.07A1.41,1.41,0,0,1,53.51,49.66Z"/></g></svg>