<?xml version="1.0" encoding="utf-8"?>
<!-- Generator: Adobe Illustrator 25.2.1, SVG Export Plug-In . SVG Version: 6.00 Build 0)  -->
<svg version="1.1" id="Capa_1" xmlns="http://www.w3.org/2000/svg" xmlns:xlink="http://www.w3.org/1999/xlink" x="0px" y="0px"
	 viewBox="0 0 150 150" style="enable-background:new 0 0 150 150;" xml:space="preserve">
<style type="text/css">
	.st0{fill:#FF0000;}
	.st1{fill:#FFFFFF;}
</style>
<rect width="150" height="150"/>
<g>
	<rect x="-249.8" class="st0" width="150" height="150"/>
	<g>
		<polygon class="st1" points="-100.7,10.7 -249,10.7 -236.8,22.1 -117.1,22.1 -124.5,61.8 -198.3,61.8 -184.1,75 -127,75 
			-136.2,124.9 -213,124.9 -231,139.3 -118.4,139.3 		"/>
		<polygon class="st1" points="-218.6,96.4 -165.6,96.4 -151.3,86.1 -221,86.1 -229.7,44.8 -125.8,45.8 -123.9,35.3 -123.9,35.3 
			-246.1,35.3 -231.1,133.5 -214.5,120.3 		"/>
	</g>
</g>
<g>
	<g>
		<g>
			<g>
				<path class="st1" d="M19.6,30.7h94.8v0l-1.5,7.1l-80.6-0.6l6.7,28h54l-11.1,7H41l3.2,16.2l-12.9,9L19.6,30.7z M118.7,101.4H31.3
					l14-9.8h59.6l7.1-33.9H67.7l-11-9h57.2l5.7-27H26.9l-9.5-7.7h115L118.7,101.4z"/>
			</g>
		</g>
	</g>
	<g>
		<polygon class="st0" points="141.5,13.8 125.8,109.1 73.9,109.1 55.9,118.2 60.1,108.7 25.2,108.7 9.5,27.2 17.8,23.7 11.5,17.3 
			0,22.1 18.2,117.1 47.2,117.1 38.8,136.2 75.9,117.5 132.9,117.5 150,13.9 		"/>
	</g>
</g>
</svg>
