<?xml version="1.0" encoding="utf-8"?>
<!-- Generator: Adobe Illustrator 25.2.1, SVG Export Plug-In . SVG Version: 6.00 Build 0)  -->
<svg version="1.1" id="Capa_1" xmlns="http://www.w3.org/2000/svg" xmlns:xlink="http://www.w3.org/1999/xlink" x="0px" y="0px"
	 viewBox="0 0 108 35" style="enable-background:new 0 0 108 35;" xml:space="preserve">
<style type="text/css">
	.st0{fill:#FFFFFF;}
	.st1{fill:#FF0000;}
</style>
<g>
	<g>
		<g>
			<g>
				<g>
					<path class="st0" d="M53.1,14.6h-3.3v-14h11.7V3h-8.4v3.5h8.4v2.3h-8.4V14.6z"/>
					<path class="st0" d="M63.9,14.6v-14h11.7v8.1h-4l4,5.9h-3.1l-4.2-5.9h-1.2v5.9H63.9z M67.2,3v3.5h5.4V3H67.2z"/>
					<path class="st0" d="M78,3V0.6h11.7v14H78v-2.4h8.6V8.7H78V6.4h8.6V3H78z"/>
					<path class="st0" d="M95.4,3v3.5h8.4v2.3h-8.4v3.5h8.4v2.4H92.2v-14h11.7V3H95.4z"/>
				</g>
			</g>
		</g>
		<g>
			<path class="st1" d="M59.9,34.4h-10V17.5h10v1.4h-8.7V33h8.7V34.4z"/>
			<path class="st1" d="M74.3,34.4H73v-7.9h-8.9v7.9h-1.4V17.5h1.4v7.6H73v-7.6h1.4V34.4z"/>
			<path class="st1" d="M88.6,34.4h-1.4v-6.3h-7.8v6.3H78V17.5h10.6V34.4z M87.2,26.7v-7.8h-7.8v7.8H87.2z"/>
			<path class="st1" d="M103.9,18.9h-5.8v15.5h-1.4V18.9h-5.8v-1.4h13V18.9z"/>
		</g>
	</g>
	<g>
		<g>
			<g>
				<path class="st0" d="M9.4,5.6h25.4v0l-0.4,1.9L12.8,7.4l1.8,7.5h14.5l-3,1.9h-11l0.9,4.3l-3.5,2.4L9.4,5.6z M35.9,24.6H12.5
					l3.7-2.6h16l1.9-9.1H22.3l-2.9-2.4h15.3l1.5-7.2H11.3L8.8,1.1h30.8L35.9,24.6z"/>
			</g>
		</g>
		<polygon class="st1" points="42.1,1.1 37.8,26.6 23.9,26.6 19.1,29.1 20.2,26.5 10.9,26.5 6.7,4.7 8.9,3.8 7.2,2 4.1,3.3 9,28.8 
			16.8,28.8 14.5,33.9 24.5,28.9 39.7,28.9 44.3,1.1 		"/>
	</g>
</g>
</svg>
