<?xml version="1.0" encoding="utf-8"?>
<!-- Generator: Adobe Illustrator 25.2.1, SVG Export Plug-In . SVG Version: 6.00 Build 0)  -->
<svg version="1.1" id="Capa_1" xmlns="http://www.w3.org/2000/svg" xmlns:xlink="http://www.w3.org/1999/xlink" x="0px" y="0px"
	 width="108px" height="35px" viewBox="0 0 108 35" style="enable-background:new 0 0 108 35;" xml:space="preserve">
<style type="text/css">
	.st0{fill:#8C8D8D;}
	.st1{fill:#CAC9C9;}
	.st2{fill:#E95439;}
	.st3{fill:#D6412D;}
</style>
<g>
	<g>
		<g>
			<path class="st0" d="M1.9,26.3v-2.9h12c0.7,0,1.3-0.2,1.8-0.7c0.5-0.5,0.8-1.1,0.8-1.8c0-0.7-0.3-1.3-0.8-1.8
				c-0.5-0.5-1.1-0.7-1.8-0.7H6.6c-1.9,0-3.3-0.8-4.3-2.4c-0.5-0.8-0.7-1.6-0.7-2.5c0-1.3,0.5-2.5,1.4-3.4c1-1,2.1-1.4,3.5-1.4h12.3
				v2.8H6.7c-0.6,0-1.1,0.2-1.5,0.6c-0.4,0.4-0.6,0.9-0.6,1.4c0,0.6,0.2,1.1,0.6,1.5c0.4,0.4,0.9,0.6,1.5,0.6h7.4
				c2.1,0,3.7,0.9,4.7,2.7c0.5,0.8,0.7,1.7,0.7,2.6c0,1.6-0.5,2.9-1.6,3.9c-1.1,1-2.4,1.5-4,1.5L1.9,26.3L1.9,26.3z"/>
			<path class="st1" d="M26.7,26.3c-1.6,0-2.9-0.5-4-1.5s-1.6-2.3-1.6-3.9c0-0.9,0.2-1.8,0.7-2.6c1-1.8,2.6-2.7,4.7-2.7h7.4
				c0.6,0,1.1-0.2,1.5-0.6c0.4-0.4,0.6-0.9,0.6-1.5c0-0.6-0.2-1.1-0.6-1.4c-0.4-0.4-0.9-0.6-1.5-0.6H21.8V8.7H34
				c1.4,0,2.5,0.5,3.5,1.4c0.9,1,1.4,2.1,1.4,3.4c0,0.9-0.2,1.7-0.7,2.5c-0.9,1.6-2.4,2.4-4.3,2.4h-7.3c-0.7,0-1.3,0.2-1.8,0.7
				c-0.5,0.5-0.8,1.1-0.8,1.8c0,0.7,0.3,1.3,0.8,1.8c0.5,0.5,1.1,0.7,1.8,0.7h12v2.9L26.7,26.3L26.7,26.3z"/>
		</g>
	</g>
	<g>
		<path class="st2" d="M48,8.7v3.9h3.8v2.9h-3.8v5.9c0,1.3,0.7,1.9,1.8,1.9c0.5,0,1.1-0.2,1.6-0.4l0.9,2.9c-1,0.4-1.8,0.6-2.8,0.6
			c-3,0.1-4.9-1.6-4.9-5v-5.9h-2.5v-2.9h2.5V9L48,8.7z"/>
		<path class="st2" d="M56.7,20.5c0.2,1.6,1.6,2.8,4,2.8c1.2,0,2.8-0.5,3.6-1.2l2.1,2.1c-1.4,1.5-3.7,2.2-5.7,2.2
			c-4.6,0-7.3-2.8-7.3-7.1c0-4,2.7-6.9,7.1-6.9c4.4,0,7.2,2.7,6.7,8.2L56.7,20.5L56.7,20.5z M63.9,17.8c-0.2-1.7-1.6-2.6-3.4-2.6
			c-1.8,0-3.2,0.9-3.7,2.6H63.9z"/>
		<path class="st2" d="M80.1,12.3h3.1v14h-3.1v-2.4c-0.8,1.6-3,2.3-4.4,2.3c-3.9,0-6.8-2.4-6.8-7c0-4.6,3-7,6.9-6.9
			c1.8,0,3.6,0.8,4.3,2.1V12.3z M72.2,19.2c0,2.5,1.7,4,3.9,4c5.2,0,5.2-8,0-8C73.9,15.2,72.2,16.7,72.2,19.2z"/>
		<g>
			<circle class="st3" cx="95.5" cy="10.4" r="1.8"/>
			<g>
				<path class="st3" d="M105.9,16L105.9,16L105.9,16c-8.7-2.8-8.6,2.3-8.6,2.3l0,0.7v7.4h-3.4v-7.4c0-0.2,0-0.5,0-0.7h0
					c0,0,0.1-5.1-8.6-2.3c0.5-1.5,1.4-2.6,2.7-3.1c0.8-0.4,1.7-0.5,2.8-0.5c0.1,0,0.2,0,0.3,0c1.7,0.1,3.2,0.7,4.4,2.5
					c0,0.1,0.1,0.2,0.3,0.2c0.1,0,0.2-0.1,0.3-0.2l0,0c1.2-1.9,2.7-2.5,4.4-2.5c0.1,0,0.2,0,0.3,0c1.1,0,2,0.2,2.8,0.5
					C104.5,13.4,105.4,14.5,105.9,16z"/>
				<path class="st2" d="M89.4,15.9c-0.3,0.2-0.5,0.4-0.7,0.7c-0.1,0.1-0.1,0.2-0.2,0.2c-0.1,0.3-0.3,0.5-0.4,0.8
					c-0.1,0.4-0.2,0.8-0.2,1.2v7.4h-3.3v-7.5c0-0.7,0.1-1.4,0.2-2c0-0.1,0-0.1,0-0.2c0.5-0.2,0.9-0.3,1.4-0.4
					C87.6,16,88.6,15.9,89.4,15.9z"/>
				<path class="st2" d="M106.3,18.9v7.5H103v-7.4c0-0.4-0.1-0.8-0.2-1.2c-0.1-0.3-0.2-0.6-0.4-0.8c0-0.1-0.1-0.2-0.2-0.2
					c-0.2-0.3-0.4-0.6-0.7-0.8c0.8,0,1.8,0.1,3,0.4c0.4,0.1,0.9,0.2,1.4,0.4c0,0.1,0,0.1,0,0.2C106.2,17.5,106.3,18.1,106.3,18.9z"
					/>
			</g>
		</g>
	</g>
</g>
</svg>
