<?xml version="1.0" encoding="utf-8"?>
<!-- Generator: Adobe Illustrator 25.2.1, SVG Export Plug-In . SVG Version: 6.00 Build 0)  -->
<svg version="1.1" id="Capa_1" xmlns="http://www.w3.org/2000/svg" xmlns:xlink="http://www.w3.org/1999/xlink" x="0px" y="0px"
	 width="256.6px" height="55px" viewBox="0 0 256.6 55" style="enable-background:new 0 0 256.6 55;" xml:space="preserve">
<style type="text/css">
	.st0{fill:#8C8D8D;}
	.st1{fill:#CAC9C9;}
	.st2{fill:#E95439;}
	.st3{fill:#D6412D;}
</style>
<g>
	<g>
		<g>
			<path class="st0" d="M13.4,46.3v-6.4h26.5c1.5,0,2.8-0.5,4-1.6c1.1-1.1,1.7-2.3,1.7-3.9s-0.5-2.8-1.7-3.9c-1.1-1.1-2.4-1.6-4-1.6
				h-16c-4.2,0-7.3-1.8-9.4-5.3c-1-1.7-1.5-3.5-1.5-5.5c0-2.9,1-5.4,3.1-7.6c2.1-2.1,4.6-3.2,7.6-3.2h27v6.3H23.9
				c-1.3,0-2.4,0.4-3.3,1.3s-1.4,1.9-1.4,3.2c0,1.3,0.5,2.4,1.4,3.2c0.9,0.9,2,1.3,3.3,1.3h16.3c4.7,0,8.2,2,10.4,5.9
				c1,1.8,1.5,3.8,1.5,5.8c0,3.5-1.2,6.3-3.6,8.5c-2.4,2.2-5.3,3.3-8.7,3.3L13.4,46.3L13.4,46.3z"/>
			<path class="st1" d="M67.8,46.3c-3.4,0-6.3-1.1-8.7-3.3s-3.6-5-3.6-8.5c0-2.1,0.5-4,1.5-5.8c2.2-3.9,5.7-5.9,10.4-5.9h16.3
				c1.3,0,2.4-0.4,3.3-1.3c0.9-0.9,1.4-2,1.4-3.2c0-1.2-0.4-2.3-1.4-3.2c-0.9-0.9-2-1.3-3.3-1.3H57.1V7.5h26.9c3,0,5.5,1.1,7.6,3.2
				c2.1,2.1,3.1,4.6,3.1,7.6c0,1.9-0.5,3.8-1.5,5.5C91.3,27.2,88.1,29,84,29h-16c-1.6,0-2.9,0.5-4,1.6s-1.7,2.3-1.7,3.9
				s0.5,2.8,1.7,3.9c1.1,1.1,2.4,1.6,4,1.6h26.5v6.4L67.8,46.3L67.8,46.3z"/>
		</g>
	</g>
	<g>
		<path class="st2" d="M114.7,7.5V16h8.2v6.4h-8.3v12.9c0,2.8,1.6,4.2,3.9,4.2c1.2,0,2.5-0.4,3.6-0.9l2.1,6.3
			c-2.1,0.8-3.9,1.2-6.1,1.3c-6.5,0.2-10.7-3.5-10.7-10.9V22.4h-5.6V16h5.6V8.3L114.7,7.5z"/>
		<path class="st2" d="M134,33.6c0.5,3.6,3.6,6.2,8.7,6.2c2.7,0,6.2-1,7.8-2.7l4.6,4.6c-3.1,3.2-8.1,4.7-12.6,4.7
			c-10.1,0-16-6.2-16-15.6c0-8.9,6-15.3,15.5-15.3c9.8,0,15.9,6,14.7,18.1L134,33.6L134,33.6z M149.8,27.6c-0.5-3.8-3.4-5.7-7.6-5.7
			c-3.9,0-7.1,1.9-8.2,5.7H149.8z"/>
		<path class="st2" d="M185.4,15.5h6.9v30.8h-6.9v-5.2c-1.7,3.4-6.5,5.1-9.7,5.1c-8.6,0.1-15-5.3-15-15.5c0-10.1,6.7-15.3,15.2-15.2
			c3.9,0,7.9,1.8,9.6,4.7V15.5z M168,30.8c0,5.6,3.8,8.9,8.6,8.9c11.4,0,11.4-17.7,0-17.7C171.9,22,168,25.2,168,30.8z"/>
		<g>
			<circle class="st3" cx="219.4" cy="11.4" r="3.9"/>
			<g>
				<path class="st3" d="M242.2,23.6l-0.1,0l0,0c-19.1-6.1-18.9,5-18.9,5l0,1.5v16.3h-7.5V30c0-0.5,0-1-0.1-1.5h0
					c0,0,0.2-11.1-18.9-5c1-3.3,3-5.6,5.9-6.9c1.7-0.8,3.8-1.2,6.1-1.2c0.2,0,0.4,0,0.6,0c3.7,0.1,7,1.4,9.6,5.5
					c0.1,0.2,0.3,0.4,0.6,0.4s0.5-0.2,0.6-0.4l0,0c2.6-4.1,5.9-5.4,9.6-5.5c0.2,0,0.4,0,0.6,0c2.4,0,4.4,0.4,6.1,1.2
					C239.2,18,241.1,20.3,242.2,23.6z"/>
				<path class="st2" d="M206,23.4c-0.6,0.4-1.1,1-1.5,1.6c-0.1,0.2-0.2,0.4-0.3,0.5c-0.3,0.6-0.6,1.2-0.8,1.8
					c-0.2,0.9-0.4,1.8-0.4,2.7v16.3h-7.2V29.9c0-1.6,0.1-3.1,0.4-4.4c0-0.1,0.1-0.3,0.1-0.4c1.1-0.3,2.1-0.6,3-0.8
					C201.9,23.6,204.1,23.4,206,23.4z"/>
				<path class="st2" d="M243,29.9v16.4h-7.2V30c0-0.9-0.1-1.8-0.4-2.7c-0.2-0.6-0.4-1.2-0.8-1.8c-0.1-0.2-0.2-0.4-0.3-0.5
					c-0.4-0.7-0.9-1.2-1.5-1.6c1.8,0,4,0.3,6.7,0.9c1,0.2,2,0.5,3.1,0.9c0,0.1,0.1,0.2,0.1,0.3C242.9,26.8,243,28.3,243,29.9z"/>
			</g>
		</g>
	</g>
</g>
</svg>
